<?xml version='1.0' encoding='utf-8'?>
<svg preserveAspectRatio="none" xmlns="http://www.w3.org/2000/svg" width="100%" height="100%" viewBox="0 0 1000000 714286"><defs><style>.C1 {stroke: #c084fc; stroke-width: 2; stroke-opacity: 1.000; fill: none; fill-opacity: 1.000;}</style></defs><g stroke-linecap="round" stroke-linejoin="round" fill-rule="evenodd"><path d="M 61122 359458 l -51 30" class="C1" /><path d="M 124093 358554 l -51 30" class="C1" /><path d="M 186756 359773 l -51 30" class="C1" /><path d="M 249727 358868 l -51 30" class="C1" /><path d="M 310845 358239 l -51 30" class="C1" /><path d="M 373817 357335 l -51 30" class="C1" /><path d="M 436479 358554 l -51 30" class="C1" /><path d="M 499450 357649 l -51 30" class="C1" /><path d="M 561672 356607 l -51 30" class="C1" /><path d="M 624643 355702 l -51 30" class="C1" /><path d="M 687305 356922 l -51 30" class="C1" /><path d="M 750277 356017 l -51 30" class="C1" /><path d="M 811395 355388 l -51 30" class="C1" /><path d="M 874366 354483 l -51 30" class="C1" /><path d="M 937029 355702 l -51 30" class="C1" /><path d="M 1000000 354798 l -51 30" class="C1" /><path d="M 51 359655 l -51 30" class="C1" /></g></svg>