<svg xmlns="http://www.w3.org/2000/svg" viewBox="40 45 1040 630" fill="currentColor"><style>.tinta{fill:none;stroke:currentColor;stroke-width:max(.37px,calc(.75px / var(--escala,1)))}.s2{stroke-width:max(.71px,calc(1.1px / var(--escala,1)))}.s0{stroke-width:max(.06px,calc(.4px / var(--escala,1)))}</style><g class="tinta" transform="matrix(1,0,0,-1,0,769.61)"><path d="M41.74 355.96H48.83"/><path d="M41.74 355.96V100.84"/><path d="M41.74 100.84H431.5"/><path d="M431.5 100.84 474.02 150.45"/></g><g class="tinta s2" transform="matrix(1,0,0,-1,0,769.61)"><path d="M48.83 348.87H77.17"/><path d="M77.17 363.05V348.87"/><path d="M48.83 363.05H77.17"/><path d="M48.83 363.05V348.87"/><path d="M48.83 334.7H77.17"/><path d="M77.17 348.87V334.7"/><path d="M48.83 348.87H77.17"/><path d="M48.83 348.87V334.7"/></g><g class="tinta" transform="matrix(1,0,0,-1,0,769.61)"><path d="M63 334.7V107.93"/><path d="M63 107.93H431.5"/><path d="M431.5 107.93 466.94 150.45"/></g><g class="tinta s2" transform="matrix(1,0,0,-1,0,769.61)"><path d="M70.09 97.3H77.17"/><path d="M77.17 324.07V97.3"/><path d="M70.09 324.07H77.17"/><path d="M70.09 324.07V97.3"/><path d="M77.17 203.6 133.87 146.91"/><path d="M133.87 146.91 190.56 203.6"/><path d="M80.72 377.22 126.78 394.94"/><path d="M126.78 394.94H140.95"/><path d="M140.95 394.94 187.02 377.22"/><path d="M80.72 377.22C78.76 377.22 77.17 375.63 77.17 373.68"/></g><g class="tinta" transform="matrix(1,0,0,-1,0,769.61)"><path d="M63 398.48H84.26"/><path d="M63 398.48V363.05"/></g><g class="tinta s2" transform="matrix(1,0,0,-1,0,769.61)"><path d="M84.26 391.39H112.61"/><path d="M112.61 405.57V391.39"/><path d="M84.26 405.57H112.61"/><path d="M84.26 405.57V391.39"/><path d="M91.35 391.39V380.76"/><path d="M109.06 391.39V387.85"/><path d="M151.58 128.48C151.58 137.87 143.97 145.49 134.57 145.49 125.18 145.49 117.57 137.87 117.57 128.48 117.57 119.09 125.18 111.47 134.57 111.47 143.97 111.47 151.58 119.09 151.58 128.48Z"/><path d="M151.58 122.1H158.67"/><path d="M158.67 132.73V122.1"/><path d="M151.58 132.73H158.67"/><path d="M151.58 132.73V122.1"/></g><g class="tinta" transform="matrix(1,0,0,-1,0,769.61)"><path d="M155.13 122.1 162.21 115.02"/><path d="M162.21 115.02H431.5"/><path d="M431.5 115.02 459.85 150.45"/></g><g class="tinta s2" transform="matrix(1,0,0,-1,0,769.61)"><path d="M167.17 337.54C167.17 342.23 163.37 346.04 158.67 346.04 153.97 346.04 150.16 342.23 150.16 337.54 150.16 332.84 153.97 329.03 158.67 329.03 163.37 329.03 167.17 332.84 167.17 337.54Z"/><path d="M171.5 337.54C171.5 344.58 165.78 350.29 158.74 350.29 151.69 350.29 145.98 344.58 145.98 337.54 145.98 330.49 151.69 324.78 158.74 324.78 165.78 324.78 171.5 330.49 171.5 337.54Z"/><path d="M190.56 373.68C190.56 375.63 188.97 377.22 187.02 377.22"/><path d="M190.56 97.3H197.65"/><path d="M197.65 324.07V97.3"/><path d="M190.56 324.07H197.65"/><path d="M190.56 324.07V97.3"/><path d="M77.17 203.6H190.56"/><path d="M190.56 373.68V203.6"/><path d="M77.17 373.68H190.56"/><path d="M77.17 373.68V203.6"/><path d="M282.69 454.46C282.69 463.86 275.07 471.47 265.68 471.47 256.28 471.47 248.67 463.86 248.67 454.46 248.67 445.07 256.28 437.46 265.68 437.46 275.07 437.46 282.69 445.07 282.69 454.46Z"/><path d="M440.01 316.98V305.65"/><path d="M440.01 316.98H882.21"/><path d="M882.21 316.98V149.74"/><path d="M440.01 149.74H882.21"/><path d="M440.01 305.65V149.74"/><path d="M605.84 316.98V149.74"/><path d="M757.49 316.98V149.74"/><path d="M380.69 562.11H438.87"/><path d="M438.87 595.84V562.11"/><path d="M380.69 595.84H438.87"/><path d="M380.69 595.84V562.11"/><path d="M398.2 270.99H440.29"/><path d="M440.29 296.43V270.99"/><path d="M398.2 296.43H440.29"/><path d="M398.2 296.43V270.99"/></g><g class="tinta" transform="matrix(1,0,0,-1,0,769.61)"><path d="M398.69 702.78H608.46"/></g><g class="tinta s2" transform="matrix(1,0,0,-1,0,769.61)"><path d="M438.59 634.47H882.21"/><path d="M438.59 430.37H882.21"/><path d="M438.59 634.47V430.37"/><path d="M551.98 634.47V509.74"/><path d="M784.42 634.47V430.37"/><path d="M882.21 634.47V430.37"/><path d="M438.59 509.74H882.21"/><path d="M668.2 634.47V509.74"/></g><g class="tinta" transform="matrix(1,0,0,-1,0,769.61)"><path d="M438.59 599.03 386.15 661.39"/><path d="M342.21 661.39H386.15"/></g><g class="tinta s2" transform="matrix(1,0,0,-1,0,769.61)"><path d="M247.25 471.47H438.59"/><path d="M438.59 499.82V471.47"/><path d="M247.25 499.82H438.59"/><path d="M247.25 499.82V471.47"/><path d="M437.39 625.1C432.38 622.87 430.13 617.01 432.36 612 433.29 609.93 434.9 608.23 436.92 607.2"/><path d="M441.43 309.9H492.45"/><path d="M492.45 309.9V241.87"/><path d="M441.43 241.87H492.45"/><path d="M441.43 309.9V241.87"/><path d="M444.12 636.31H474.31"/><path d="M474.31 658.91V636.31"/><path d="M444.12 658.91H474.31"/><path d="M444.12 658.91V636.31"/><path d="M445.68 631.63V608.95"/><path d="M445.68 631.63H457.02"/><path d="M457.02 631.63V608.95"/><path d="M445.68 608.95H457.02"/><path d="M455.6 196.51H479.69"/><path d="M479.69 196.51V179.5"/><path d="M455.6 179.5H479.69"/><path d="M455.6 196.51V179.5"/><path d="M455.6 179.5H479.69"/><path d="M479.69 179.5V162.5"/><path d="M455.6 162.5H479.69"/><path d="M455.6 179.5V162.5"/><path d="M461.27 582.02V553.68"/><path d="M466.94 587.69H520.79"/><path d="M466.94 587.69C463.81 587.69 461.27 585.15 461.27 582.02"/><path d="M461.27 553.68C461.27 550.55 463.81 548.01 466.94 548.01"/><path d="M466.94 548.01H520.79"/><path d="M488.2 149.74V127.06"/><path d="M488.2 127.06H496.7"/><path d="M496.7 149.74V127.06"/><path d="M495.28 127.06C495.28 130.98 492.11 134.15 488.2 134.15 484.28 134.15 481.11 130.98 481.11 127.06 481.11 123.15 484.28 119.98 488.2 119.98 492.11 119.98 495.28 123.15 495.28 127.06Z"/><path d="M493.87 199.35H587.41"/><path d="M587.41 199.35V156.83"/><path d="M493.87 156.83H587.41"/><path d="M493.87 199.35V156.83"/><path d="M495.28 307.06H520.79"/><path d="M520.79 307.06V292.89"/><path d="M495.28 292.89H520.79"/><path d="M495.28 307.06V292.89"/><path d="M500.95 430.37V407.69"/><path d="M500.95 407.69H509.46"/><path d="M509.46 430.37V407.69"/><path d="M508.04 407.69C508.04 411.61 504.87 414.78 500.95 414.78 497.04 414.78 493.87 411.61 493.87 407.69 493.87 403.78 497.04 400.61 500.95 400.61 504.87 400.61 508.04 403.78 508.04 407.69Z"/><path d="M509.46 545.17V522.5"/><path d="M509.46 545.17H520.79"/><path d="M520.79 545.17V522.5"/><path d="M509.46 522.5H520.79"/><path d="M511.44 612.57H536.95"/><path d="M536.95 612.57V598.39"/><path d="M511.44 598.39H536.95"/><path d="M511.44 612.57V598.39"/><path d="M526.47 582.02C526.47 585.15 523.93 587.69 520.79 587.69"/><path d="M520.79 548.01C523.93 548.01 526.47 550.55 526.47 553.68"/><path d="M520.79 309.9H605.84"/><path d="M605.84 309.9V230.53"/><path d="M520.79 230.53H605.84"/><path d="M520.79 309.9V230.53"/><path d="M523.63 531H549.14"/><path d="M549.14 531V516.83"/><path d="M523.63 516.83H549.14"/><path d="M523.63 531V516.83"/><path d="M526.47 582.02V553.68"/><path d="M556.23 631.63V608.95"/><path d="M556.23 631.63H567.57"/><path d="M567.57 631.63V608.95"/><path d="M556.23 608.95H567.57"/><path d="M577.49 582.02V553.68"/><path d="M583.16 587.69H637.02"/><path d="M583.16 587.69C580.03 587.69 577.49 585.15 577.49 582.02"/><path d="M577.49 553.68C577.49 550.55 580.03 548.01 583.16 548.01"/><path d="M583.16 548.01H637.02"/><path d="M609.31 217.13H626.32"/><path d="M626.32 217.13V202.96"/><path d="M609.31 202.96H626.32"/><path d="M609.31 217.13V202.96"/><path d="M611.5 510.02V430.65"/><path d="M612.92 277.3H638.43"/><path d="M638.43 277.3V263.13"/><path d="M612.92 263.13H638.43"/><path d="M612.92 277.3V263.13"/><path d="M627.73 191.62C627.73 197.1 623.29 201.54 617.81 201.54 612.33 201.54 607.89 197.1 607.89 191.62 607.89 186.14 612.33 181.7 617.81 181.7 623.29 181.7 627.73 186.14 627.73 191.62Z"/><path d="M629.86 225.64H654.73"/><path d="M654.73 239.95V225.64"/><path d="M629.86 239.95H654.73"/><path d="M629.86 239.95V225.64"/><path d="M616.11 167.17H638.79"/><path d="M638.79 167.17V153"/><path d="M616.11 153H638.79"/><path d="M616.11 167.17V153"/><path d="M703.49 240.87H729"/><path d="M729 240.87V226.7"/><path d="M703.49 226.7H729"/><path d="M703.49 240.87V226.7"/><path d="M632.76 541.21H658.28"/><path d="M658.28 541.21V527.03"/><path d="M632.76 527.03H658.28"/><path d="M632.76 541.21V527.03"/><path d="M632.76 527.03H658.28"/><path d="M658.28 527.03V512.86"/><path d="M632.76 512.86H658.28"/><path d="M632.76 527.03V512.86"/><path d="M633.4 217.13H650.41"/><path d="M650.41 217.13V202.96"/><path d="M633.4 202.96H650.41"/><path d="M633.4 217.13V202.96"/><path d="M642.68 582.02C642.68 585.15 640.15 587.69 637.02 587.69"/><path d="M637.02 548.01C640.15 548.01 642.68 550.55 642.68 553.68"/><path d="M651.83 191.62C651.83 197.1 647.38 201.54 641.91 201.54 636.43 201.54 631.98 197.1 631.98 191.62 631.98 186.14 636.43 181.7 641.91 181.7 647.38 181.7 651.83 186.14 651.83 191.62Z"/><path d="M642.68 582.02V553.68"/><path d="M639.28 167.17H661.96"/><path d="M661.96 167.17V153"/><path d="M639.28 153H661.96"/><path d="M639.28 167.17V153"/><path d="M657.5 217.13H674.5"/><path d="M674.5 217.13V202.96"/><path d="M657.5 202.96H674.5"/><path d="M657.5 217.13V202.96"/><path d="M675.92 191.62C675.92 197.1 671.48 201.54 666 201.54 660.52 201.54 656.08 197.1 656.08 191.62 656.08 186.14 660.52 181.7 666 181.7 671.48 181.7 675.92 186.14 675.92 191.62Z"/><path d="M667.42 240.45H692.93"/><path d="M692.93 240.45V226.28"/><path d="M667.42 226.28H692.93"/><path d="M667.42 240.45V226.28"/><path d="M672.45 631.63V608.95"/><path d="M672.45 631.63H683.79"/><path d="M683.79 631.63V608.95"/><path d="M672.45 608.95H683.79"/><path d="M663.16 167.17H685.84"/><path d="M685.84 167.17V153"/><path d="M663.16 153H685.84"/><path d="M663.16 167.17V153"/><path d="M693.71 301.39C693.71 309.22 687.36 315.57 679.53 315.57 671.71 315.57 665.36 309.22 665.36 301.39 665.36 293.57 671.71 287.22 679.53 287.22 687.36 287.22 693.71 293.57 693.71 301.39Z"/><path d="M681.59 217.13H698.6"/><path d="M698.6 217.13V202.96"/><path d="M681.59 202.96H698.6"/><path d="M681.59 217.13V202.96"/><path d="M700.02 191.62C700.02 197.1 695.57 201.54 690.1 201.54 684.62 201.54 680.17 197.1 680.17 191.62 680.17 186.14 684.62 181.7 690.1 181.7 695.57 181.7 700.02 186.14 700.02 191.62Z"/><path d="M693.71 582.02V553.68"/><path d="M699.38 587.69H753.24"/><path d="M699.38 587.69C696.25 587.69 693.71 585.15 693.71 582.02"/><path d="M693.71 553.68C693.71 550.55 696.25 548.01 699.38 548.01"/><path d="M699.38 548.01H753.24"/><path d="M691.23 167.46H713.91"/><path d="M713.91 167.46V153.28"/><path d="M691.23 153.28H713.91"/><path d="M691.23 167.46V153.28"/><path d="M709.94 217.13H726.95"/><path d="M726.95 217.13V202.96"/><path d="M709.94 202.96H726.95"/><path d="M709.94 217.13V202.96"/><path d="M728.36 191.62C728.36 197.1 723.92 201.54 718.44 201.54 712.96 201.54 708.52 197.1 708.52 191.62 708.52 186.14 712.96 181.7 718.44 181.7 723.92 181.7 728.36 186.14 728.36 191.62Z"/><path d="M727.72 566.43H753.24"/><path d="M753.24 566.43V552.26"/><path d="M727.72 552.26H753.24"/><path d="M727.72 566.43V552.26"/><path d="M727.72 531H753.24"/><path d="M753.24 531V516.83"/><path d="M727.72 516.83H753.24"/><path d="M727.72 531V516.83"/><path d="M731.84 180.92H754.51"/><path d="M754.51 180.92V166.75"/><path d="M731.84 166.75H754.51"/><path d="M731.84 180.92V166.75"/><path d="M735.45 217.13H752.46"/><path d="M752.46 217.13V202.96"/><path d="M735.45 202.96H752.46"/><path d="M735.45 217.13V202.96"/><path d="M753.87 191.62C753.87 197.1 749.43 201.54 743.95 201.54 738.47 201.54 734.03 197.1 734.03 191.62 734.03 186.14 738.47 181.7 743.95 181.7 749.43 181.7 753.87 186.14 753.87 191.62Z"/><path d="M758.91 582.02C758.91 585.15 756.37 587.69 753.24 587.69"/><path d="M753.24 548.01C756.37 548.01 758.91 550.55 758.91 553.68"/><path d="M758.91 582.02V553.68"/><path d="M758.91 230.53H801.42"/><path d="M801.42 265.96V230.53"/><path d="M758.91 265.96H801.42"/><path d="M758.91 265.96V230.53"/><path d="M758.91 190.84H775.91"/><path d="M775.91 226.28V190.84"/><path d="M758.91 226.28H775.91"/><path d="M758.91 226.28V190.84"/><path d="M768.83 475.72V453.05"/><path d="M768.83 475.72H780.16"/><path d="M780.16 475.72V453.05"/><path d="M768.83 453.05H780.16"/><path d="M768.83 312.73H785.84"/><path d="M785.84 312.73V295.72"/><path d="M768.83 295.72H785.84"/><path d="M768.83 312.73V295.72"/><path d="M784.42 566.43H882.21"/><path d="M882.21 566.43V545.17"/><path d="M784.42 545.17H882.21"/><path d="M784.42 566.43V545.17"/><path d="M785.84 504.07V481.39"/><path d="M785.84 504.07H797.17"/><path d="M797.17 504.07V481.39"/><path d="M785.84 481.39H797.17"/><path d="M791.5 312.73H808.51"/><path d="M808.51 312.73V295.72"/><path d="M791.5 295.72H808.51"/><path d="M791.5 312.73V295.72"/><path d="M800.01 149.74V127.06"/><path d="M800.01 127.06H808.51"/><path d="M808.51 149.74V127.06"/><path d="M807.1 127.06C807.1 130.98 803.92 134.15 800.01 134.15 796.09 134.15 792.92 130.98 792.92 127.06 792.92 123.15 796.09 119.98 800.01 119.98 803.92 119.98 807.1 123.15 807.1 127.06Z"/><path d="M807.1 230.53H849.61"/><path d="M849.61 265.96V230.53"/><path d="M807.1 265.96H849.61"/><path d="M807.1 265.96V230.53"/><path d="M818.43 202.18H843.95"/><path d="M843.95 202.18V188.01"/><path d="M818.43 188.01H843.95"/><path d="M818.43 202.18V188.01"/><path d="M826.94 430.37V407.69"/><path d="M826.94 407.69H835.44"/><path d="M835.44 430.37V407.69"/><path d="M834.02 407.69C834.02 411.61 830.85 414.78 826.94 414.78 823.02 414.78 819.85 411.61 819.85 407.69 819.85 403.78 823.02 400.61 826.94 400.61 830.85 400.61 834.02 403.78 834.02 407.69Z"/><path d="M836.86 176.67C836.86 182.15 832.42 186.59 826.94 186.59 821.46 186.59 817.02 182.15 817.02 176.67 817.02 171.19 821.46 166.75 826.94 166.75 832.42 166.75 836.86 171.19 836.86 176.67Z"/><path d="M839.69 316.98V294.31"/><path d="M839.69 294.31H882.21"/><path d="M882.21 316.98V294.31"/><path d="M839.69 316.98H882.21"/><path d="M851.03 562.18H873.71"/><path d="M873.71 562.18V550.84"/><path d="M851.03 550.84H873.71"/><path d="M851.03 562.18V550.84"/><path d="M852.24 184.53H879.24"/><path d="M879.24 219.19V184.53"/><path d="M852.24 219.19H879.24"/><path d="M852.24 219.19V184.53"/><path d="M852.45 239.03H879.8"/><path d="M879.95 239.24V222.24"/><path d="M852.45 222.02H880.16"/><path d="M852.45 239.03V222.02"/><path d="M853.87 258.87H879.38"/><path d="M879.38 258.87V244.7"/><path d="M853.87 244.7H879.38"/><path d="M853.87 258.87V244.7"/><path d="M855.85 530.79H878.53"/><path d="M878.53 530.79V519.45"/><path d="M855.85 519.45H878.53"/><path d="M855.85 530.79V519.45"/></g><g class="tinta" transform="matrix(1,0,0,-1,0,769.61)"><path d="M862.37 294.31 868.04 285.8"/><path d="M868.04 285.8H1046.62"/></g><g class="tinta s2" transform="matrix(1,0,0,-1,0,769.61)"><path d="M882 295.17C887 297.39 889.25 303.26 887.02 308.26 886.1 310.34 884.49 312.04 882.47 313.07"/><path d="M881.5 240.87H939.68"/><path d="M939.68 274.61V240.87"/><path d="M881.5 274.61H939.68"/><path d="M881.5 274.61V240.87"/><path d="M882.21 585.71H924.31"/><path d="M924.31 611.15V585.71"/><path d="M882.21 611.15H924.31"/><path d="M882.21 611.15V585.71"/><path d="M881.79 537.95H1030.04"/><path d="M1030.04 568.06V537.95"/><path d="M881.79 568.06H1030.04"/><path d="M881.79 568.06V537.95"/><path d="M886.89 505.28H912.4"/><path d="M912.4 505.28V491.1"/><path d="M886.89 491.1H912.4"/><path d="M886.89 505.28V491.1"/><path d="M892.91 231.24H918.42"/><path d="M918.42 231.24V217.21"/><path d="M892.91 217.06H918.42"/><path d="M892.91 231.24V217.06"/><path d="M1077.8 171C1077.8 180.39 1070.19 188.01 1060.8 188.01 1051.4 188.01 1043.79 180.39 1043.79 171 1043.79 161.61 1051.4 153.99 1060.8 153.99 1070.19 153.99 1077.8 161.61 1077.8 171Z"/><path d="M885.05 188.01H1076.39"/><path d="M1076.39 216.35V188.01"/><path d="M885.05 216.35H1076.39"/><path d="M885.05 216.35V188.01"/><path d="M892.91 216.35H918.42"/><path d="M918.42 216.35V202.32"/><path d="M892.91 202.18H918.42"/><path d="M892.91 216.35V202.18"/><path d="M610.58 300.19H636.1"/><path d="M636.1 300.19V286.02"/><path d="M610.58 286.02H636.1"/><path d="M610.58 300.19V286.02"/><path d="M731.76 165.19H754.44"/><path d="M754.44 165.19V151.02"/><path d="M731.76 151.02H754.44"/><path d="M731.76 165.19V151.02"/></g></svg>
